<?xml version="1.0" standalone="no"?><!DOCTYPE svg PUBLIC "-//W3C//DTD SVG 1.1//EN" "http://www.w3.org/Graphics/SVG/1.1/DTD/svg11.dtd"><svg t="1610287981728" class="icon" viewBox="0 0 1066 1024" version="1.1" xmlns="http://www.w3.org/2000/svg" p-id="7138" width="49.96875" height="48" xmlns:xlink="http://www.w3.org/1999/xlink"><defs><style type="text/css"></style></defs><path d="M827.306667 352.682667a53.333333 53.333333 0 0 1 86.314666 62.634666c-96.512 132.992-220.16 201.514667-366.933333 201.514667-147.2 0-269.397333-68.864-362.496-202.325333a53.333333 53.333333 0 0 1 87.466667-61.013334c73.813333 105.813333 164.096 156.672 274.986666 156.672 111.232 0 203.477333-51.157333 280.618667-157.482666z" p-id="7139"></path><path d="M283.946667 482.773333a53.333333 53.333333 0 0 1 83.456 66.176l-3.584 4.565334-51.285334 57.856a53.333333 53.333333 0 0 1-83.456-66.176l3.626667-4.565334 51.242667-57.856zM750.250667 478.208a53.333333 53.333333 0 0 1 71.210666 0.426667l4.053334 4.138666 51.285333 57.856a53.333333 53.333333 0 0 1-75.733333 74.88l-4.096-4.138666-51.285334-57.856a53.333333 53.333333 0 0 1 4.565334-75.306667zM407.466667 569.728a53.333333 53.333333 0 0 1 104.192 22.186667l-1.152 5.290666-19.968 74.837334a53.333333 53.333333 0 0 1-104.192-22.186667l1.152-5.290667 19.968-74.837333zM626.048 531.925333a53.333333 53.333333 0 0 1 63.616 32.597334l1.706667 5.205333 19.925333 74.837333a53.333333 53.333333 0 0 1-101.376 32.682667l-1.706667-5.205333-19.925333-74.837334a53.333333 53.333333 0 0 1 37.76-65.28z" p-id="7140"></path></svg>