<?xml version="1.0" standalone="no"?><!DOCTYPE svg PUBLIC "-//W3C//DTD SVG 1.1//EN" "http://www.w3.org/Graphics/SVG/1.1/DTD/svg11.dtd"><svg t="1610284473868" class="icon" viewBox="0 0 1024 1024" version="1.1" xmlns="http://www.w3.org/2000/svg" p-id="1337" xmlns:xlink="http://www.w3.org/1999/xlink" width="200" height="200"><defs><style type="text/css"></style></defs><path d="M917.201625 469.460138 256.755712 469.460138l0-10.651594 0-31.956829 0-42.61047c0-141.186579 114.470101-255.656681 255.656681-255.656681 130.342604 0 237.675144 97.618295 253.441223 223.699852l64.510246 0C814.342979 190.794417 678.099992 64.670905 512.412392 64.670905c-176.487573 0-319.570339 143.082766-319.570339 319.570339l0 42.61047 0 31.956829 0 10.651594-81.661881 0c-23.542182 0-46.167482 14.658861-46.167482 38.178531l0 409.221172c0 23.520693 19.088754 42.609447 42.609447 42.609447l806.021453 0c23.520693 0 42.61047-19.088754 42.61047-42.609447L956.25406 507.638669C956.25406 484.118999 940.723342 469.460138 917.201625 469.460138zM895.897414 895.555629 128.927371 895.555629 128.927371 533.37482l766.971066 0L895.898437 895.555629z" p-id="1338"></path></svg>